# xmcd
#
# Track frame offsets:
#	150
#	18451
#	34739
#	51758
#	69871
#	84506
#	100031
#	119231
#	135640
#	148845
#	166989
#	181424
#	197586
#	212915
#	224543
#
# Disc length: 3224 seconds
#
# Revision: 0
# Processed by: cddbd v1.5.2PL0 Copyright (c) Steve Scherf et al.
# Submitted via: audiograbber 1.83.01
#
DISCID=df0c960f
DTITLE=Sampler - Kneipenhits Disco Fox [CD 2)
DYEAR=1900
DGENRE=Disco
TTITLE0=Caught in the Act - Love is everywhere
TTITLE1=Mike Oldfield - Moonlight Shadow
TTITLE2=Nick Straker Band - A Walk in the Park
TTITLE3=Kelly Marie - Feels like i'm in Love
TTITLE4=KWS - Please Don't go
TTITLE5=Peter Kent - Stop 'n go
TTITLE6=Desireless - Voyage Voyage
TTITLE7=Jamtronic - Another Day in paradise
TTITLE8=Scotch - Take me up
TTITLE9=Billy Ocean - Caribbean
TTITLE10=Harpo - Horoscop
TTITLE11=Grant Miller - Stranger in my Life
TTITLE12=Clout - Substitute
TTITLE13=Kincade - Dreams are ten a penny
TTITLE14=Suzi Quatro - If you can't give me love
EXTD=
EXTT0=
EXTT1=
EXTT2=
EXTT3=
EXTT4=
EXTT5=
EXTT6=
EXTT7=
EXTT8=
EXTT9=
EXTT10=
EXTT11=
EXTT12=
EXTT13=
EXTT14=
PLAYORDER=
